<?xml version="1.0" standalone="no"?>
<!DOCTYPE svg PUBLIC "-//W3C//DTD SVG 20010904//EN"
 "http://www.w3.org/TR/2001/REC-SVG-20010904/DTD/svg10.dtd">
<svg version="1.0" xmlns="http://www.w3.org/2000/svg"
 width="120.000000pt" height="120.000000pt" viewBox="0 0 120.000000 120.000000"
 preserveAspectRatio="xMidYMid meet">

<g transform="translate(0.000000,120.000000) scale(0.100000,-0.100000)"
fill="#000000" stroke="none">
<path d="M520 984 c-35 -15 -100 -71 -100 -86 0 -4 77 -8 170 -8 94 0 170 4
170 9 0 17 -51 63 -92 81 -51 23 -100 25 -148 4z m13 -39 c-18 -22 -37 -35
-51 -35 -33 0 -23 21 24 47 54 31 59 29 27 -12z m141 12 c47 -26 58 -47 24
-46 -13 0 -35 14 -51 35 -34 40 -27 42 27 11z m-94 -22 c0 -20 -5 -25 -27 -25
l-26 0 23 25 c13 14 25 25 27 25 2 0 3 -11 3 -25z m50 0 l23 -25 -26 0 c-22 0
-27 5 -27 25 0 14 1 25 3 25 2 0 14 -11 27 -25z"/>
<path d="M384 833 c3 -10 8 -30 12 -45 7 -32 33 -37 41 -8 7 26 23 26 23 -1 0
-36 34 -18 44 24 5 20 12 37 16 37 4 0 11 -17 16 -37 10 -42 44 -60 44 -24 0
27 16 27 23 1 8 -29 34 -24 41 8 4 15 9 35 12 45 8 26 -22 21 -31 -5 l-8 -23
-4 23 c-6 28 -31 29 -42 0 l-8 -22 -5 22 c-9 32 -64 31 -74 0 l-7 -23 -8 23
c-11 29 -36 28 -42 0 l-4 -23 -8 23 c-9 26 -39 31 -31 5z"/>
<path d="M675 813 c4 -21 9 -41 11 -45 10 -16 32 -7 38 15 l7 22 9 -22 c14
-35 35 -27 48 16 15 49 15 51 -3 51 -8 0 -15 -9 -15 -20 0 -11 -4 -20 -10 -20
-5 0 -10 9 -10 20 0 27 -30 26 -38 -2 l-5 -22 -8 22 c-14 38 -32 26 -24 -15z"/>
<path d="M653 717 c37 -96 64 -147 80 -147 9 0 17 7 17 15 0 19 14 19 30 0 12
-14 15 -14 32 1 17 16 17 18 2 36 -16 17 -16 19 0 37 21 23 17 27 -72 52 -79
22 -96 24 -89 6z m97 -24 c57 -16 59 -17 44 -35 -16 -17 -16 -19 -1 -36 22
-24 9 -37 -14 -16 -19 17 -39 11 -39 -12 0 -31 -16 -11 -42 51 -15 36 -22 65
-17 65 5 0 36 -7 69 -17z"/>
<path d="M420 711 c0 -19 81 -81 121 -91 50 -14 114 -5 102 13 -4 7 -8 15 -9
20 -1 4 -2 10 -3 13 0 4 -8 0 -18 -7 -15 -13 -16 -11 -10 24 l6 37 -95 0 c-52
0 -94 -4 -94 -9z m108 -42 c14 -16 18 -29 11 -29 -17 0 -79 40 -79 51 0 21 47
6 68 -22z m52 6 c0 -14 -1 -25 -3 -25 -2 0 -14 11 -27 25 l-23 25 26 0 c22 0
27 -5 27 -25z"/>
</g>
</svg>
